# xmcd CD database file
#
# Track frame offsets:
#	150
#	15027
#	28492
#	44345
#	59852
#	74182
#	88670
#	102465
#	116437
#	132400
#	144847
#	161277
#
# Disc length: 2363 seconds
#
# Revision: 0
# Processed by: cddbd v1.5.1PL2 Copyright (c) Steve Scherf et al.
# Submitted via: CDex 1.51
#
DISCID=aa09390c
DTITLE=美空ひばり - 魅力のすべて　マドロス篇
DYEAR=1997
DGENRE=Vocal
TTITLE0=ひばりのマドロスさん
TTITLE1=あの日の船はもう来ない
TTITLE2=港は別れてゆくところ
TTITLE3=波止場だよ、お父つぁん
TTITLE4=港町十三番地
TTITLE5=浜っ子マドロス
TTITLE6=青い海原
TTITLE7=ご機嫌ようマドロスさん
TTITLE8=三味線マドロス
TTITLE9=白いランチで十四ノット
TTITLE10=初恋マドロス
TTITLE11=鼻唄マドロス
EXTD=YEAR: 1997
EXTT0=
EXTT1=
EXTT2=
EXTT3=
EXTT4=
EXTT5=
EXTT6=
EXTT7=
EXTT8=
EXTT9=
EXTT10=
EXTT11=
PLAYORDER=
